<svg viewBox="0 0 590 360" xmlns="http://www.w3.org/2000/svg"><path d="M265.63 344.43a2.02 2.01 76.7 0 0-1.85-1.15l-17.03.24a2.25 2.22 9.3 0 0-2.06 1.46l-2.86 7.84a2.47 2.46-79.1 0 1-2.38 1.62l-6.23-.19q-1.19-.04-.88-1.19 1.38-5.23 2.81-8.7c3.41-8.3 6.48-16.83 10.12-25.35q2.96-6.93 5.21-14.24c.46-1.52 1.69-2.64 3.37-2.63 2.02 0 4.68-.78 5.7 1.58q7.68 17.74 18.16 44.75.96 2.46 1.48 5a.67.66 84.3 0 1-.65.8l-6.05-.02q-2.16-.01-3.1-1.96l-3.76-7.86zm-16.73-10.31a.34.34 0 0 0 .32.47l12.85-.36a.34.34 0 0 0 .3-.48l-6.84-14.7a.34.34 0 0 0-.62.02l-6.01 15.05z" fill="#0d161f"/><rect rx="2.17" height="52.28" width="9.84" y="302.19" x="345.67" fill="#0d161f"/><path d="m303.07 338.46-.15 14.42q-.01 1.55-1.56 1.52l-5.84-.12q-1.79-.04-1.81-1.83c-.24-15.33-.25-30.89-.27-47.22q-.01-2.99 2.55-3.06 12.47-.33 20.15.8 8.61 1.25 12.86 9.17c2.95 5.49 2.53 13.5-1.5 18.65-5.57 7.14-14.88 6.62-23.24 6.51a1.17 1.17 0 0 0-1.19 1.16zm-.15-24.81.16 12.72a1.72 1.72 0 0 0 1.74 1.7l6.07-.08a10.01 7.98-.7 0 0 9.91-8.1v-.2a10.01 7.98-.7 0 0-10.11-7.86l-6.07.08a1.72 1.72 0 0 0-1.7 1.74z" fill="#0d161f"/><rect rx="3.58" height="7.26" width="79.2" y="322.99" x="107" fill="#0d161f"/><rect rx="3.81" height="7.72" width="79.1" y="322.78" x="417.27" fill="#0d161f"/><text xml:space="preserve" style="font-style:normal;font-weight:400;font-size:254.903px;line-height:1.25;font-family:sans-serif;fill:#000;fill-opacity:1;stroke:none;stroke-width:1.32762" x="32.882" y="238.543"><tspan x="32.882" y="238.543" style="font-style:normal;font-variant:normal;font-weight:700;font-stretch:normal;font-size:254.903px;font-family:'Times New Roman';-inkscape-font-specification:'Times New Roman, Bold';stroke-width:1.32762">WEI</tspan></text></svg>